<svg width="15" height="15" viewBox="0 0 15 15" fill="none" xmlns="http://www.w3.org/2000/svg">
<path d="M12.398 5.27299L6.39796 11.273C6.34571 11.3254 6.28361 11.367 6.21524 11.3954C6.14686 11.4238 6.07356 11.4384 5.99953 11.4384C5.92549 11.4384 5.85219 11.4238 5.78382 11.3954C5.71544 11.367 5.65335 11.3254 5.60109 11.273L2.97609 8.64799C2.92377 8.59566 2.88226 8.53355 2.85394 8.46518C2.82563 8.39682 2.81105 8.32355 2.81105 8.24955C2.81105 8.17555 2.82563 8.10228 2.85394 8.03392C2.88226 7.96555 2.92377 7.90344 2.97609 7.85111C3.02841 7.79879 3.09053 7.75728 3.15889 7.72897C3.22726 7.70065 3.30053 7.68607 3.37453 7.68607C3.44852 7.68607 3.52179 7.70065 3.59016 7.72897C3.65852 7.75728 3.72064 7.79879 3.77296 7.85111L5.99999 10.0781L11.602 4.47705C11.7077 4.37138 11.851 4.31201 12.0005 4.31201C12.1499 4.31201 12.2932 4.37138 12.3989 4.47705C12.5046 4.58272 12.5639 4.72604 12.5639 4.87549C12.5639 5.02493 12.5046 5.16825 12.3989 5.27393L12.398 5.27299Z" fill="white"/>
</svg>
