<svg width="280" height="280" viewBox="0 0 280 280" fill="none" xmlns="http://www.w3.org/2000/svg">
<path fill-rule="evenodd" clip-rule="evenodd" d="M215.591 212.899L261.463 71.4238C265.062 60.3316 258.991 48.394 247.922 44.7929C236.853 41.1918 224.941 47.2703 221.347 58.3625L175.475 199.832C171.876 210.924 177.947 222.862 189.016 226.463C200.085 230.069 211.998 223.991 215.591 212.899Z" fill="url(#paint0_linear_601_2017)"/>
<path fill-rule="evenodd" clip-rule="evenodd" d="M215.591 212.899L261.463 71.4238C265.062 60.3316 258.991 48.394 247.922 44.7929C236.853 41.1918 224.941 47.2703 221.347 58.3625L175.475 199.832C171.876 210.924 177.947 222.862 189.016 226.463C200.085 230.069 211.998 223.991 215.591 212.899Z" fill="url(#paint1_linear_601_2017)"/>
<path fill-rule="evenodd" clip-rule="evenodd" d="M215.591 212.899L261.463 71.4238C265.062 60.3316 258.991 48.394 247.922 44.7929C236.853 41.1918 224.941 47.2703 221.347 58.3625L175.475 199.832C171.876 210.924 177.947 222.862 189.016 226.463C200.085 230.069 211.998 223.991 215.591 212.899Z" fill="url(#paint2_linear_601_2017)" fill-opacity="0.8"/>
<path fill-rule="evenodd" clip-rule="evenodd" d="M215.591 212.899L261.463 71.4238C265.062 60.3316 258.991 48.394 247.922 44.7929C236.853 41.1918 224.941 47.2703 221.347 58.3625L175.475 199.832C171.876 210.924 177.947 222.862 189.016 226.463C200.085 230.069 211.998 223.991 215.591 212.899Z" fill="url(#paint3_radial_601_2017)"/>
<path fill-rule="evenodd" clip-rule="evenodd" d="M215.591 212.899L261.463 71.4238C265.062 60.3316 258.991 48.394 247.922 44.7929C236.853 41.1918 224.941 47.2703 221.347 58.3625L175.475 199.832C171.876 210.924 177.947 222.862 189.016 226.463C200.085 230.069 211.998 223.991 215.591 212.899Z" fill="url(#paint4_radial_601_2017)"/>
<path fill-rule="evenodd" clip-rule="evenodd" d="M215.591 212.899L261.463 71.4238C265.062 60.3316 258.991 48.394 247.922 44.7929C236.853 41.1918 224.941 47.2703 221.347 58.3625L175.475 199.832C171.876 210.924 177.947 222.862 189.016 226.463C200.085 230.069 211.998 223.991 215.591 212.899Z" fill="url(#paint5_radial_601_2017)"/>
<path fill-rule="evenodd" clip-rule="evenodd" d="M139.994 129.046C145.2 129.046 149.039 132.101 152.312 135.932C155.949 140.197 158.853 145.484 161.32 151.097C172.411 176.293 174.488 207.815 174.488 207.815C175.283 219.453 185.359 228.25 196.973 227.452C208.586 226.655 217.364 216.553 216.569 204.92C216.569 204.92 213.782 165.549 199.915 134.038C188.023 107.017 167.888 86.7747 139.999 86.7747C112.111 86.7747 91.9753 107.017 80.0841 134.038C66.2119 165.549 63.43 204.92 63.43 204.92C62.6344 216.558 71.4126 226.655 83.0262 227.452C94.6397 228.25 104.716 219.453 105.511 207.815C105.511 207.815 107.588 176.299 118.678 151.097C121.145 145.489 124.05 140.197 127.686 135.932C130.954 132.101 134.793 129.046 139.994 129.046Z" fill="#E63CFE"/>
<path fill-rule="evenodd" clip-rule="evenodd" d="M139.994 129.046C145.2 129.046 149.039 132.101 152.312 135.932C155.949 140.197 158.853 145.484 161.32 151.097C172.411 176.293 174.488 207.815 174.488 207.815C175.283 219.453 185.359 228.25 196.973 227.452C208.586 226.655 217.364 216.553 216.569 204.92C216.569 204.92 213.782 165.549 199.915 134.038C188.023 107.017 167.888 86.7747 139.999 86.7747C112.111 86.7747 91.9753 107.017 80.0841 134.038C66.2119 165.549 63.43 204.92 63.43 204.92C62.6344 216.558 71.4126 226.655 83.0262 227.452C94.6397 228.25 104.716 219.453 105.511 207.815C105.511 207.815 107.588 176.299 118.678 151.097C121.145 145.489 124.05 140.197 127.686 135.932C130.954 132.101 134.793 129.046 139.994 129.046Z" fill="url(#paint6_radial_601_2017)"/>
<path fill-rule="evenodd" clip-rule="evenodd" d="M139.994 129.046C145.2 129.046 149.039 132.101 152.312 135.932C155.949 140.197 158.853 145.484 161.32 151.097C172.411 176.293 174.488 207.815 174.488 207.815C175.283 219.453 185.359 228.25 196.973 227.452C208.586 226.655 217.364 216.553 216.569 204.92C216.569 204.92 213.782 165.549 199.915 134.038C188.023 107.017 167.888 86.7747 139.999 86.7747C112.111 86.7747 91.9753 107.017 80.0841 134.038C66.2119 165.549 63.43 204.92 63.43 204.92C62.6344 216.558 71.4126 226.655 83.0262 227.452C94.6397 228.25 104.716 219.453 105.511 207.815C105.511 207.815 107.588 176.299 118.678 151.097C121.145 145.489 124.05 140.197 127.686 135.932C130.954 132.101 134.793 129.046 139.994 129.046Z" fill="url(#paint7_radial_601_2017)"/>
<path fill-rule="evenodd" clip-rule="evenodd" d="M139.994 129.046C145.2 129.046 149.039 132.101 152.312 135.932C155.949 140.197 158.853 145.484 161.32 151.097C172.411 176.293 174.488 207.815 174.488 207.815C175.283 219.453 185.359 228.25 196.973 227.452C208.586 226.655 217.364 216.553 216.569 204.92C216.569 204.92 213.782 165.549 199.915 134.038C188.023 107.017 167.888 86.7747 139.999 86.7747C112.111 86.7747 91.9753 107.017 80.0841 134.038C66.2119 165.549 63.43 204.92 63.43 204.92C62.6344 216.558 71.4126 226.655 83.0262 227.452C94.6397 228.25 104.716 219.453 105.511 207.815C105.511 207.815 107.588 176.299 118.678 151.097C121.145 145.489 124.05 140.197 127.686 135.932C130.954 132.101 134.793 129.046 139.994 129.046Z" fill="url(#paint8_radial_601_2017)"/>
<path fill-rule="evenodd" clip-rule="evenodd" d="M139.994 129.046C145.2 129.046 149.039 132.101 152.312 135.932C155.949 140.197 158.853 145.484 161.32 151.097C172.411 176.293 174.488 207.815 174.488 207.815C175.283 219.453 185.359 228.25 196.973 227.452C208.586 226.655 217.364 216.553 216.569 204.92C216.569 204.92 213.782 165.549 199.915 134.038C188.023 107.017 167.888 86.7747 139.999 86.7747C112.111 86.7747 91.9753 107.017 80.0841 134.038C66.2119 165.549 63.43 204.92 63.43 204.92C62.6344 216.558 71.4126 226.655 83.0262 227.452C94.6397 228.25 104.716 219.453 105.511 207.815C105.511 207.815 107.588 176.299 118.678 151.097C121.145 145.489 124.05 140.197 127.686 135.932C130.954 132.101 134.793 129.046 139.994 129.046Z" fill="url(#paint9_radial_601_2017)"/>
<path fill-rule="evenodd" clip-rule="evenodd" d="M139.994 129.046C145.2 129.046 149.039 132.101 152.312 135.932C155.949 140.197 158.853 145.484 161.32 151.097C172.411 176.293 174.488 207.815 174.488 207.815C175.283 219.453 185.359 228.25 196.973 227.452C208.586 226.655 217.364 216.553 216.569 204.92C216.569 204.92 213.782 165.549 199.915 134.038C188.023 107.017 167.888 86.7747 139.999 86.7747C112.111 86.7747 91.9753 107.017 80.0841 134.038C66.2119 165.549 63.43 204.92 63.43 204.92C62.6344 216.558 71.4126 226.655 83.0262 227.452C94.6397 228.25 104.716 219.453 105.511 207.815C105.511 207.815 107.588 176.299 118.678 151.097C121.145 145.489 124.05 140.197 127.686 135.932C130.954 132.101 134.793 129.046 139.994 129.046Z" fill="url(#paint10_radial_601_2017)"/>
<path fill-rule="evenodd" clip-rule="evenodd" d="M139.994 129.046C145.2 129.046 149.039 132.101 152.312 135.932C155.949 140.197 158.853 145.484 161.32 151.097C172.411 176.293 174.488 207.815 174.488 207.815C175.283 219.453 185.359 228.25 196.973 227.452C208.586 226.655 217.364 216.553 216.569 204.92C216.569 204.92 213.782 165.549 199.915 134.038C188.023 107.017 167.888 86.7747 139.999 86.7747C112.111 86.7747 91.9753 107.017 80.0841 134.038C66.2119 165.549 63.43 204.92 63.43 204.92C62.6344 216.558 71.4126 226.655 83.0262 227.452C94.6397 228.25 104.716 219.453 105.511 207.815C105.511 207.815 107.588 176.299 118.678 151.097C121.145 145.489 124.05 140.197 127.686 135.932C130.954 132.101 134.793 129.046 139.994 129.046Z" fill="url(#paint11_radial_601_2017)"/>
<path fill-rule="evenodd" clip-rule="evenodd" d="M139.994 129.046C145.2 129.046 149.039 132.101 152.312 135.932C155.949 140.197 158.853 145.484 161.32 151.097C172.411 176.293 174.488 207.815 174.488 207.815C175.283 219.453 185.359 228.25 196.973 227.452C208.586 226.655 217.364 216.553 216.569 204.92C216.569 204.92 213.782 165.549 199.915 134.038C188.023 107.017 167.888 86.7747 139.999 86.7747C112.111 86.7747 91.9753 107.017 80.0841 134.038C66.2119 165.549 63.43 204.92 63.43 204.92C62.6344 216.558 71.4126 226.655 83.0262 227.452C94.6397 228.25 104.716 219.453 105.511 207.815C105.511 207.815 107.588 176.299 118.678 151.097C121.145 145.489 124.05 140.197 127.686 135.932C130.954 132.101 134.793 129.046 139.994 129.046Z" fill="url(#paint12_radial_601_2017)"/>
<path fill-rule="evenodd" clip-rule="evenodd" d="M139.994 129.046C145.2 129.046 149.039 132.101 152.312 135.932C155.949 140.197 158.853 145.484 161.32 151.097C172.411 176.293 174.488 207.815 174.488 207.815C175.283 219.453 185.359 228.25 196.973 227.452C208.586 226.655 217.364 216.553 216.569 204.92C216.569 204.92 213.782 165.549 199.915 134.038C188.023 107.017 167.888 86.7747 139.999 86.7747C112.111 86.7747 91.9753 107.017 80.0841 134.038C66.2119 165.549 63.43 204.92 63.43 204.92C62.6344 216.558 71.4126 226.655 83.0262 227.452C94.6397 228.25 104.716 219.453 105.511 207.815C105.511 207.815 107.588 176.299 118.678 151.097C121.145 145.489 124.05 140.197 127.686 135.932C130.954 132.101 134.793 129.046 139.994 129.046Z" fill="url(#paint13_radial_601_2017)"/>
<path fill-rule="evenodd" clip-rule="evenodd" d="M104.525 199.832L58.6531 58.357C55.0595 47.2648 43.1523 41.181 32.078 44.7874C21.0091 48.3938 14.938 60.3261 18.5369 71.4183L64.4091 212.893C68.008 223.985 79.9152 230.069 90.9842 226.463C102.053 222.856 108.124 210.924 104.525 199.832Z" fill="url(#paint14_linear_601_2017)"/>
<path fill-rule="evenodd" clip-rule="evenodd" d="M104.525 199.832L58.6531 58.357C55.0595 47.2648 43.1523 41.181 32.078 44.7874C21.0091 48.3938 14.938 60.3261 18.5369 71.4183L64.4091 212.893C68.008 223.985 79.9152 230.069 90.9842 226.463C102.053 222.856 108.124 210.924 104.525 199.832Z" fill="url(#paint15_radial_601_2017)"/>
<path fill-rule="evenodd" clip-rule="evenodd" d="M104.525 199.832L58.6531 58.357C55.0595 47.2648 43.1523 41.181 32.078 44.7874C21.0091 48.3938 14.938 60.3261 18.5369 71.4183L64.4091 212.893C68.008 223.985 79.9152 230.069 90.9842 226.463C102.053 222.856 108.124 210.924 104.525 199.832Z" fill="url(#paint16_linear_601_2017)"/>
<path fill-rule="evenodd" clip-rule="evenodd" d="M104.525 199.832L58.6531 58.357C55.0595 47.2648 43.1523 41.181 32.078 44.7874C21.0091 48.3938 14.938 60.3261 18.5369 71.4183L64.4091 212.893C68.008 223.985 79.9152 230.069 90.9842 226.463C102.053 222.856 108.124 210.924 104.525 199.832Z" fill="url(#paint17_radial_601_2017)"/>
<path fill-rule="evenodd" clip-rule="evenodd" d="M104.525 199.832L58.6531 58.357C55.0595 47.2648 43.1523 41.181 32.078 44.7874C21.0091 48.3938 14.938 60.3261 18.5369 71.4183L64.4091 212.893C68.008 223.985 79.9152 230.069 90.9842 226.463C102.053 222.856 108.124 210.924 104.525 199.832Z" fill="url(#paint18_radial_601_2017)"/>
<defs>
<linearGradient id="paint0_linear_601_2017" x1="285.998" y1="-2.59536" x2="217.306" y2="219.523" gradientUnits="userSpaceOnUse">
<stop stop-color="#4A4EFA"/>
<stop offset="0.548576" stop-color="#E63CFE"/>
</linearGradient>
<linearGradient id="paint1_linear_601_2017" x1="199.725" y1="125.449" x2="238.638" y2="138.045" gradientUnits="userSpaceOnUse">
<stop offset="0.160046" stop-color="#4A4EFA"/>
<stop offset="0.946031" stop-color="#4A4EFA" stop-opacity="0"/>
</linearGradient>
<linearGradient id="paint2_linear_601_2017" x1="205.622" y1="106.773" x2="230.072" y2="114.593" gradientUnits="userSpaceOnUse">
<stop stop-color="#39FBBB"/>
<stop offset="1" stop-color="#39FBBB" stop-opacity="0"/>
</linearGradient>
<radialGradient id="paint3_radial_601_2017" cx="0" cy="0" r="1" gradientUnits="userSpaceOnUse" gradientTransform="translate(196.587 158.507) rotate(-64.1652) scale(127.494 127.493)">
<stop offset="0.832168" stop-color="#4A4EFA" stop-opacity="0"/>
<stop offset="1" stop-color="#4A4EFA" stop-opacity="0.75"/>
</radialGradient>
<radialGradient id="paint4_radial_601_2017" cx="0" cy="0" r="1" gradientUnits="userSpaceOnUse" gradientTransform="translate(194.115 150.092) scale(28.4242 60.7891)">
<stop offset="0.169047" stop-color="#11417A"/>
<stop offset="0.926198" stop-color="#4069D4" stop-opacity="0"/>
</radialGradient>
<radialGradient id="paint5_radial_601_2017" cx="0" cy="0" r="1" gradientUnits="userSpaceOnUse" gradientTransform="translate(227.016 227.502) rotate(-90) scale(94.017 45.0586)">
<stop offset="0.34895" stop-color="#E63CFE"/>
<stop offset="1" stop-color="#E63CFE" stop-opacity="0"/>
</radialGradient>
<radialGradient id="paint6_radial_601_2017" cx="0" cy="0" r="1" gradientUnits="userSpaceOnUse" gradientTransform="translate(132.851 160.978) rotate(-85.7675) scale(96.8652 86.0088)">
<stop stop-color="#39FBBB" stop-opacity="0.5"/>
<stop offset="0.688731" stop-color="#39FBBB"/>
<stop offset="1" stop-color="#39FBBB" stop-opacity="0"/>
</radialGradient>
<radialGradient id="paint7_radial_601_2017" cx="0" cy="0" r="1" gradientUnits="userSpaceOnUse" gradientTransform="translate(270.861 215.515) rotate(-122.629) scale(232.221 56.4955)">
<stop stop-color="#E63CFE"/>
<stop offset="1" stop-color="#E63CFE" stop-opacity="0"/>
</radialGradient>
<radialGradient id="paint8_radial_601_2017" cx="0" cy="0" r="1" gradientUnits="userSpaceOnUse" gradientTransform="translate(136.7 190.875) rotate(-85.0199) scale(104.495 89.8863)">
<stop offset="0.556793" stop-color="#4A4EFA"/>
<stop offset="0.934777" stop-color="#4A4EFA" stop-opacity="0"/>
</radialGradient>
<radialGradient id="paint9_radial_601_2017" cx="0" cy="0" r="1" gradientUnits="userSpaceOnUse" gradientTransform="translate(108.364 222.502) rotate(-68.6369) scale(109.126 65.1232)">
<stop offset="0.61345" stop-color="#E63CFE"/>
<stop offset="1" stop-color="#E63CFE" stop-opacity="0"/>
</radialGradient>
<radialGradient id="paint10_radial_601_2017" cx="0" cy="0" r="1" gradientUnits="userSpaceOnUse" gradientTransform="translate(213.95 148.6) rotate(176.233) scale(135.493 342.53)">
<stop offset="0.813918" stop-color="#4A98D0" stop-opacity="0"/>
<stop offset="0.972647" stop-color="#11417A"/>
</radialGradient>
<radialGradient id="paint11_radial_601_2017" cx="0" cy="0" r="1" gradientUnits="userSpaceOnUse" gradientTransform="translate(100.227 227.502) rotate(-90) scale(97.1075 80.5718)">
<stop offset="0.457769" stop-color="#FFAE3C"/>
<stop offset="1" stop-color="#FFAE3C" stop-opacity="0"/>
</radialGradient>
<radialGradient id="paint12_radial_601_2017" cx="0" cy="0" r="1" gradientUnits="userSpaceOnUse" gradientTransform="translate(217.978 227.502) rotate(-90) scale(87.529 87.528)">
<stop offset="0.191715" stop-color="#E63CFE"/>
<stop offset="1" stop-color="#E63CFE" stop-opacity="0"/>
</radialGradient>
<radialGradient id="paint13_radial_601_2017" cx="0" cy="0" r="1" gradientUnits="userSpaceOnUse" gradientTransform="translate(166.628 227.502) rotate(-90) scale(65.8652 31.287)">
<stop offset="0.173611" stop-color="#FFAE3C"/>
<stop offset="1" stop-color="#FFAE3C" stop-opacity="0"/>
</radialGradient>
<linearGradient id="paint14_linear_601_2017" x1="10.2926" y1="52.5781" x2="69.5199" y2="236.841" gradientUnits="userSpaceOnUse">
<stop offset="0.169527" stop-color="#E63CFE"/>
<stop offset="0.708644" stop-color="#FFAE3C"/>
</linearGradient>
<radialGradient id="paint15_radial_601_2017" cx="0" cy="0" r="1" gradientUnits="userSpaceOnUse" gradientTransform="translate(58.7769 99.9106) rotate(161.042) scale(29.5497 144.294)">
<stop offset="0.120383" stop-color="#4A4EFA"/>
<stop offset="1" stop-color="#4A4EFA" stop-opacity="0"/>
</radialGradient>
<linearGradient id="paint16_linear_601_2017" x1="84.7655" y1="138.7" x2="76.4714" y2="141.415" gradientUnits="userSpaceOnUse">
<stop stop-color="#E63CFE" stop-opacity="0.33"/>
<stop offset="1" stop-color="#E63CFE" stop-opacity="0"/>
</linearGradient>
<radialGradient id="paint17_radial_601_2017" cx="0" cy="0" r="1" gradientUnits="userSpaceOnUse" gradientTransform="translate(105.562 227.502) rotate(-90) scale(94.9397 103.714)">
<stop offset="0.465389" stop-color="#FFAE3C"/>
<stop offset="0.92565" stop-color="#FFAE3C" stop-opacity="0"/>
</radialGradient>
<radialGradient id="paint18_radial_601_2017" cx="0" cy="0" r="1" gradientUnits="userSpaceOnUse" gradientTransform="translate(105.562 227.502) rotate(-90) scale(207.732 207.73)">
<stop offset="0.843756" stop-color="#E63CFE" stop-opacity="0"/>
<stop offset="1" stop-color="#E63CFE"/>
</radialGradient>
</defs>
</svg>
